<svg xmlns="http://www.w3.org/2000/svg" viewBox="0 0 99.9 66.17"><title>logo_lcs</title><g id="Capa_2" data-name="Capa 2"><g id="Layer_1" data-name="Layer 1"><path d="M52.91,32.76v-.07s.07,0,.07-.07a.2.2,0,0,1-.07.14m4.9-2.05A13,13,0,0,1,53,32.76q1.65-1.23,3.53-2.81a16.28,16.28,0,0,0,2.73-2.81,4.72,4.72,0,0,0,.79-2,1.67,1.67,0,0,0-.36-1.33,1.54,1.54,0,0,0-1.26-.43,4.62,4.62,0,0,0-1.91.61,29.36,29.36,0,0,0-5.36,4q-2.7,2.48-5.15,5.22l-.87,1.15a53.29,53.29,0,0,0-3.38,5.26,15.52,15.52,0,0,0-2,6.48,6.31,6.31,0,0,0,.32,2.59,3.58,3.58,0,0,0,1.08,1.55,3.67,3.67,0,0,0,1.58.72,6.53,6.53,0,0,0,1.83.11,22.34,22.34,0,0,0,5.07-1.29,32.2,32.2,0,0,0,4.72-2.16c.38-.24.66-.28.83-.11s.06.37-.33.61-1.15.81-1.87,1.26-1.51.9-2.38,1.33-1.75.83-2.66,1.19a13,13,0,0,1-2.74.76,4.24,4.24,0,0,1-2.34-.25A8.51,8.51,0,0,1,40.5,51a7.3,7.3,0,0,1-1.84-2.2A5,5,0,0,1,38,46.08a18.18,18.18,0,0,1,1.12-5.26,29.75,29.75,0,0,1,2.48-5.18A36.55,36.55,0,0,1,45,30.86,42.9,42.9,0,0,1,49,26.75a28.24,28.24,0,0,1,4-3.09,17.64,17.64,0,0,1,3.74-1.84,4.43,4.43,0,0,1,2.63-.07,4.08,4.08,0,0,1,2,1.22,3.16,3.16,0,0,1,.76,2.16A4.21,4.21,0,0,1,61,27.8a16.46,16.46,0,0,1-3.17,2.91" fill="#0095aa"/><path d="M17.22,54.86q-3.68-.07-8-3.46a21,21,0,0,1-6.62-8.35,4.56,4.56,0,0,1-.36-1.59c0-1.3.91-1.82,2.74-1.58q6.62,1,19.79,7.34Q22.55,55,17.22,54.86m47-3.31a2.88,2.88,0,0,1-1.33,1c-.65.29-1.45.62-2.42,1a9.37,9.37,0,0,1-4.39.79c-.58-.1-.67-.36-.29-.79A5.75,5.75,0,0,1,57,52.27q.86-.72,2.3-1.73,2.37-1.73,3.53-2.45a4.07,4.07,0,0,1,1.66,2.66,1.26,1.26,0,0,1-.29.79m33.3-5.46c-.58-9.12-8.09-9.28-13.93-8h0c-.51.11-1,.24-1.49.37-1.79.43-3.58.91-5.38,1.48a61.54,61.54,0,0,0-11.3,5,9,9,0,0,1-2.45-2.66,10.5,10.5,0,0,1-1.58-3.67q-.5-3.53,6.33-8.21a29.53,29.53,0,0,1,9.51-4.82c.24,0,.49-.08.75-.11s.54,0,.83,0a10.78,10.78,0,0,1,1.95.22,20.34,20.34,0,0,1,2.8.79c.34.1.88-.1,1.62-.58a5.77,5.77,0,0,0,1.62-1.44q.29-.29,0-.94A1,1,0,0,0,86,23a26.53,26.53,0,0,0-8.6,1.4A48.16,48.16,0,0,0,67.6,29q-10.37,6-9.79,10.87a7.87,7.87,0,0,0,.54,1.95,8.69,8.69,0,0,0,1.19,1.94l2.3,3.09q-8.49,5.91-9.72,7.41-.5.87.43.94a1.61,1.61,0,0,0,1,0c.41-.1.95-.19,1.62-.29a4.76,4.76,0,0,0,1.51.21,17.17,17.17,0,0,0,6.55-1.8q4.75-2,4.75-4a3.35,3.35,0,0,0-.4-1.33,12.53,12.53,0,0,0-1.33-2A88.13,88.13,0,0,1,77.29,40.5a40.18,40.18,0,0,1,5.9-2c5.23-.95,11.75-.43,11.88,7.92.22,13.34-7.54,19.89-19.45,18.82-.56-.06-1.12-.12-1.71-.2h-.08a74.88,74.88,0,0,1-16-4.5q-4.32-1.73-9.1-4t-10.12-5l-5.73-3.17q-2.84-1.59-5.72-3.1,2.59-6.55,4.35-10.8T34.28,28q7-15.26,12.52-21.45Q51.92.8,56.45,1.23,60,1.52,63.51,5a24.29,24.29,0,0,1,3.17,3.71A19.49,19.49,0,0,1,68.91,13c.19.53.43.79.72.79s.44-.22.44-.65a.92.92,0,0,0-.07-.32c0-.12-.1-.25-.15-.39A21.23,21.23,0,0,0,64.41,3.1,10.66,10.66,0,0,0,56.6,0a9.48,9.48,0,0,0-3.1.58,28.11,28.11,0,0,0-3.6,1.58c-1.06.63-1.95,1.2-2.66,1.73a16.14,16.14,0,0,0-1.87,1.59,45.26,45.26,0,0,0-5.83,8.13,121.17,121.17,0,0,0-6.48,13q-2.88,6.26-7.2,17.85-4.39-2.08-6.77-3.17c-1.58-.72-2.52-1.15-2.81-1.29Q9.44,37.23,5.77,37.23c-.24,0-.51,0-.79,0a6.44,6.44,0,0,0-.79.11,4,4,0,0,0-1.15.5q-.58.36-1.37.94Q-.13,40.25,0,41.33q.29,4,5.9,9.08,5.69,5.54,11.23,5.4a8.45,8.45,0,0,0,5.25-2.45,12,12,0,0,0,3.74-5.54,242.91,242.91,0,0,0,30.92,14q12.07,4.25,20,4.38a26.28,26.28,0,0,0,6.08-.45c.62-.11,1.24-.24,1.87-.41v0c7.63-2.19,13.16-8.36,12.47-19.16" fill="#0095aa"/><path d="M76,23s16.26-28.46,10.9-1.46c0,0,3.23-20.13-10.9,1.46" fill="#0095aa"/><path d="M70.37,25.09s-7.93-11.5-5.09,2.78c0,0-2.35-10.56,5.09-2.78" fill="#0095aa"/><path d="M76.19,34A12.23,12.23,0,0,0,74,33.76c-.65,2.17,2.17,3.69,2.82.87,0,0,.2-.48-.65-.65" fill="#0095aa"/><path d="M93.09,29.6s4.55-1.58-.26-1.44c-5.14.14-9.85,3.66-10.09,3.79A17.5,17.5,0,0,1,93.09,29.6" fill="#0095aa"/><path d="M97,36.46s6.18.33.4-1.84c-6.18-2.33-13.5-.45-13.85-.42A22.54,22.54,0,0,1,97,36.46" fill="#0095aa"/><path d="M57.91,34.53s-3.27-1.13.18-1c3.69.1,7.07,2.62,7.24,2.72a12.56,12.56,0,0,0-7.43-1.68" fill="#0095aa"/><path d="M55.08,39.45s-4.44.24-.29-1.32c4.44-1.67,9.69-.32,9.95-.3a16.18,16.18,0,0,0-9.66,1.62" fill="#0095aa"/></g></g></svg>